<svg width="30px" height="30px" viewBox="0 0 30 30" version="1.1" xmlns="http://www.w3.org/2000/svg" xmlns:xlink="http://www.w3.org/1999/xlink">
    <desc>Created by a designer.</desc>
    <defs></defs>
    <g id="Page-1" stroke="none" stroke-width="1" fill="none" fill-rule="evenodd">
        <g id="tick-icon-white" transform="translate(0.000000, 0.000000)">
            <rect id="Rectangle" fill="#DEE0E2" opacity="0" x="0" y="0" width="30" height="30"></rect>
            <path d="M29.4580645,9.80808081 L15.4451613,23.8249158 L12.8129032,26.4579125 C12.4516111,26.819306 12.0129058,27 11.4967742,27 C10.9806426,27 10.5419373,26.819306 10.1806452,26.4579125 L7.5483871,23.8249158 L0.541935484,16.8164983 C0.180643355,16.4551048 0,16.0162764 0,15.5 C0,14.9837236 0.180643355,14.5448952 0.541935484,14.1835017 L3.17419355,11.5505051 C3.53548568,11.1891115 3.97419097,11.0084175 4.49032258,11.0084175 C5.00645419,11.0084175 5.44515948,11.1891115 5.80645161,11.5505051 L11.4967742,17.2617845 L24.1935484,4.54208754 C24.5548405,4.18069404 24.9935458,4 25.5096774,4 C26.025809,4 26.4645143,4.18069404 26.8258065,4.54208754 L29.4580645,7.17508418 C29.8193566,7.53647768 30,7.97530606 30,8.49158249 C30,9.00785892 29.8193566,9.44668731 29.4580645,9.80808081 Z" id="Shape" fill="#FFFFFF" fill-rule="nonzero"></path>
        </g>
    </g>
</svg>